<svg xmlns="http://www.w3.org/2000/svg" xmlns:xlink="http://www.w3.org/1999/xlink" width="500" zoomAndPan="magnify" viewBox="0 0 375 374.999991" height="500" preserveAspectRatio="xMidYMid meet" version="1.0"><defs><g/><clipPath id="4bcb6de235"><path d="M 192 77 L 301.585938 77 L 301.585938 237 L 192 237 Z M 192 77 " clip-rule="nonzero"/></clipPath><clipPath id="b85f885455"><path d="M 73.585938 77 L 183 77 L 183 237 L 73.585938 237 Z M 73.585938 77 " clip-rule="nonzero"/></clipPath></defs><path fill="#0252bb" d="M 206.648438 172.761719 C 210.425781 170.574219 211.339844 165.757812 208.53125 162.390625 C 205.214844 158.414062 201.839844 154.472656 198.425781 150.464844 C 198.871094 150.273438 199.230469 150.136719 199.472656 150.054688 L 199.464844 150.054688 L 199.601562 150.011719 C 199.675781 149.988281 199.734375 149.96875 199.769531 149.960938 L 199.816406 149.953125 C 199.816406 149.945312 199.824219 149.945312 199.824219 149.945312 L 199.839844 149.945312 L 205.539062 148.257812 C 205.578125 148.242188 205.621094 148.234375 205.660156 148.226562 L 215.363281 145.359375 C 215.636719 145.230469 215.882812 145.082031 216.089844 144.898438 C 217.160156 143.988281 217.414062 142.441406 216.753906 140.859375 C 216.269531 139.730469 215.429688 138.851562 214.320312 138.332031 L 165.707031 115.523438 C 163.691406 114.578125 161.558594 114.667969 160.003906 115.738281 C 158.695312 117.089844 158.253906 119.1875 158.867188 121.328125 L 173.421875 173.015625 C 173.757812 174.195312 174.484375 175.164062 175.519531 175.824219 C 176.976562 176.738281 178.546875 176.738281 179.617188 175.839844 C 179.824219 175.652344 180.015625 175.4375 180.1875 175.191406 L 184.597656 166.085938 C 184.613281 166.046875 184.632812 166.011719 184.648438 165.980469 L 187.242188 160.621094 L 187.25 160.613281 C 187.25 160.605469 187.25 160.605469 187.257812 160.597656 L 187.273438 160.5625 C 187.289062 160.523438 187.316406 160.472656 187.355469 160.398438 L 187.414062 160.277344 C 187.535156 160.054688 187.71875 159.730469 187.988281 159.328125 C 191.332031 163.269531 194.679688 167.222656 198.046875 171.15625 C 200.253906 173.734375 203.839844 174.390625 206.648438 172.761719 " fill-opacity="1" fill-rule="nonzero"/><g clip-path="url(#4bcb6de235)"><path fill="#0252bb" d="M 301.539062 83.625 C 301.539062 80.09375 298.675781 77.242188 295.152344 77.242188 C 291.628906 77.242188 288.765625 80.09375 288.765625 83.625 C 288.765625 128.703125 288.9375 173.789062 288.9375 218.863281 C 288.9375 220.738281 288.9375 222.605469 288.9375 225.265625 C 288.9375 222.769531 266.960938 218.367188 264.304688 217.890625 C 248.863281 215.101562 232.617188 215.027344 217.40625 219.148438 C 210.089844 221.117188 201.019531 224.070312 195.183594 229.125 C 192.015625 231.867188 190.753906 233.363281 195.480469 235.832031 C 201.839844 239.148438 208.878906 233.539062 214.476562 231.050781 C 238.492188 220.367188 265.828125 221.816406 289.25 233.308594 C 296.929688 237.085938 301.523438 233.980469 301.53125 225.546875 C 301.539062 190.335938 301.539062 155.125 301.539062 119.914062 C 301.539062 107.820312 301.539062 95.714844 301.539062 83.625 " fill-opacity="1" fill-rule="nonzero"/></g><g clip-path="url(#b85f885455)"><path fill="#0252bb" d="M 180.003906 229.125 C 174.167969 224.070312 165.089844 221.117188 157.78125 219.148438 C 142.570312 215.027344 126.324219 215.101562 110.882812 217.890625 C 108.226562 218.367188 86.25 222.769531 86.25 225.265625 C 86.25 222.605469 86.25 220.738281 86.25 218.863281 C 86.25 173.789062 86.421875 128.703125 86.421875 83.625 C 86.421875 80.09375 83.558594 77.242188 80.035156 77.242188 C 76.511719 77.242188 73.648438 80.09375 73.648438 83.625 C 73.648438 95.714844 73.648438 107.820312 73.648438 119.914062 C 73.648438 155.125 73.648438 190.335938 73.65625 225.546875 C 73.664062 233.980469 78.257812 237.085938 85.9375 233.308594 C 109.359375 221.816406 136.695312 220.367188 160.710938 231.050781 C 166.308594 233.539062 173.347656 239.148438 179.703125 235.832031 C 184.433594 233.363281 183.167969 231.867188 180.003906 229.125 " fill-opacity="1" fill-rule="nonzero"/></g><path fill="#0252bb" d="M 188.078125 214.160156 C 186.046875 212.34375 183.09375 210.589844 181.570312 209.683594 L 180.917969 209.304688 C 161.855469 200.277344 140.769531 196.113281 113.507812 196.113281 C 110.777344 196.113281 107.988281 196.160156 105.132812 196.242188 L 105.132812 75.886719 C 105.261719 75.878906 105.386719 75.863281 105.519531 75.859375 C 106.6875 75.753906 107.804688 75.65625 108.875 75.703125 C 111.128906 75.777344 113.386719 75.820312 115.640625 75.863281 C 121.425781 76 127.402344 76.125 133.238281 76.660156 C 145.394531 77.730469 156.011719 80.082031 165.683594 83.84375 C 169.246094 85.226562 180.507812 91.753906 184.203125 93.902344 L 184.546875 94.042969 C 185.617188 94.324219 188.402344 94.890625 191.289062 93.863281 C 192.539062 93.128906 193.90625 92.390625 194.9375 91.835938 C 195.847656 91.351562 196.523438 90.980469 196.730469 90.824219 C 200.230469 88.222656 204.34375 86.074219 210.070312 83.84375 C 219.703125 80.082031 230.304688 77.738281 242.476562 76.652344 C 248.3125 76.125 254.289062 76 260.074219 75.863281 C 262.328125 75.820312 264.578125 75.777344 266.847656 75.703125 C 267.917969 75.632812 269.027344 75.753906 270.199219 75.859375 C 270.328125 75.863281 270.453125 75.878906 270.578125 75.886719 L 270.578125 196.242188 C 240.320312 195.371094 217.652344 199.074219 197.230469 208.1875 L 196.402344 208.589844 L 196.402344 208.640625 C 193.347656 210.285156 189.765625 212.886719 188.078125 214.160156 Z M 217.785156 211.628906 C 224.558594 209.816406 231.808594 208.5 240.589844 207.496094 C 251.6875 206.203125 263.367188 206.023438 277.34375 206.953125 C 277.777344 206.976562 278.207031 207.019531 278.707031 207.074219 L 280.878906 207.28125 L 280.878906 184.269531 C 280.878906 184.003906 280.953125 183.699219 281.03125 183.347656 L 281.210938 182.546875 L 281.003906 181.75 C 280.945312 181.550781 280.878906 181.320312 280.878906 181.207031 L 280.878906 153.664062 C 280.878906 153.527344 280.957031 153.253906 281.027344 153.03125 L 281.203125 152.355469 L 281.039062 151.46875 C 280.964844 151.074219 280.878906 150.6875 280.878906 150.300781 L 280.878906 66.386719 L 278.117188 66.082031 C 277.210938 65.960938 276.335938 65.859375 275.441406 65.804688 C 263.554688 65.085938 254.386719 65.152344 245.71875 66 C 240.386719 66.527344 235.671875 67.097656 231.332031 67.746094 C 218.441406 69.664062 207.40625 73.070312 197.601562 78.140625 C 193.859375 80.050781 190.730469 82.191406 188.054688 84.667969 C 187.933594 84.660156 187.816406 84.660156 187.703125 84.675781 C 187.699219 84.675781 187.683594 84.675781 187.667969 84.675781 C 185.050781 82.25 181.921875 80.109375 178.121094 78.148438 C 168.359375 73.078125 157.320312 69.671875 144.382812 67.746094 C 140.035156 67.097656 135.328125 66.527344 129.988281 66 C 121.328125 65.152344 112.160156 65.085938 100.273438 65.804688 C 99.378906 65.859375 98.496094 65.960938 97.597656 66.082031 L 94.828125 66.386719 L 94.828125 150.300781 C 94.828125 150.6875 94.75 151.058594 94.675781 151.445312 L 94.511719 152.347656 L 94.695312 153.046875 C 94.753906 153.261719 94.828125 153.527344 94.828125 153.664062 L 94.828125 181.207031 C 94.828125 181.320312 94.769531 181.527344 94.710938 181.742188 L 94.511719 182.546875 L 94.679688 183.363281 C 94.761719 183.707031 94.828125 184.003906 94.828125 184.269531 L 94.828125 207.273438 L 97.015625 207.066406 C 97.507812 207.019531 97.9375 206.976562 98.375 206.953125 C 112.339844 206.03125 124.011719 206.203125 135.117188 207.503906 C 143.914062 208.5 151.15625 209.816406 157.921875 211.628906 C 164.492188 213.429688 173.015625 216.128906 180.640625 221.140625 C 182.375 222.246094 183.980469 223.527344 185.683594 224.886719 L 187.191406 226.082031 L 188.515625 226.082031 L 190.03125 224.886719 C 191.734375 223.527344 193.339844 222.246094 195.078125 221.132812 C 202.691406 216.128906 211.214844 213.429688 217.785156 211.628906 " fill-opacity="1" fill-rule="nonzero"/><g fill="#0252bb" fill-opacity="1"><g transform="translate(-0.772975, 295.831782)"><g><path d="M 26.875 -4.921875 C 30.707031 -4.921875 33.847656 -6.820312 36.296875 -10.625 L 40.796875 -7.5 C 39.304688 -4.820312 37.160156 -2.734375 34.359375 -1.234375 C 31.566406 0.265625 28.429688 1.015625 24.953125 1.015625 C 21.910156 1.015625 19.0625 0.445312 16.40625 -0.6875 C 13.75 -1.832031 11.421875 -3.410156 9.421875 -5.421875 C 7.421875 -7.441406 5.847656 -9.789062 4.703125 -12.46875 C 3.566406 -15.15625 3 -18.015625 3 -21.046875 C 3 -24.128906 3.566406 -26.988281 4.703125 -29.625 C 5.847656 -32.269531 7.429688 -34.601562 9.453125 -36.625 C 11.472656 -38.644531 13.832031 -40.210938 16.53125 -41.328125 C 19.226562 -42.453125 22.113281 -43.015625 25.1875 -43.015625 C 27.1875 -43.015625 29.144531 -42.769531 31.0625 -42.28125 C 32.988281 -41.800781 34.75 -41.140625 36.34375 -40.296875 C 37.945312 -39.460938 39.25 -38.488281 40.25 -37.375 L 36.109375 -32.8125 C 33.515625 -35.65625 30.476562 -37.078125 27 -37.078125 C 24.632812 -37.078125 22.5625 -36.414062 20.78125 -35.09375 C 19 -33.769531 17.628906 -31.914062 16.671875 -29.53125 C 15.710938 -27.15625 15.234375 -24.347656 15.234375 -21.109375 C 15.234375 -17.867188 15.722656 -15.03125 16.703125 -12.59375 C 17.679688 -10.15625 19.050781 -8.265625 20.8125 -6.921875 C 22.570312 -5.585938 24.59375 -4.921875 26.875 -4.921875 Z M 26.875 -4.921875 "/></g></g></g><g fill="#0252bb" fill-opacity="1"><g transform="translate(42.115202, 295.831782)"><g><path d="M 24.65625 -43.015625 C 27.65625 -43.015625 30.453125 -42.441406 33.046875 -41.296875 C 35.648438 -40.160156 37.953125 -38.582031 39.953125 -36.5625 C 41.953125 -34.539062 43.507812 -32.195312 44.625 -29.53125 C 45.75 -26.875 46.3125 -24.03125 46.3125 -21 C 46.3125 -17.957031 45.75 -15.101562 44.625 -12.4375 C 43.507812 -9.78125 41.953125 -7.441406 39.953125 -5.421875 C 37.953125 -3.410156 35.648438 -1.832031 33.046875 -0.6875 C 30.453125 0.445312 27.65625 1.015625 24.65625 1.015625 C 21.65625 1.015625 18.851562 0.445312 16.25 -0.6875 C 13.65625 -1.832031 11.359375 -3.410156 9.359375 -5.421875 C 7.359375 -7.441406 5.796875 -9.78125 4.671875 -12.4375 C 3.554688 -15.101562 3 -17.957031 3 -21 C 3 -24.03125 3.554688 -26.875 4.671875 -29.53125 C 5.796875 -32.195312 7.359375 -34.539062 9.359375 -36.5625 C 11.359375 -38.582031 13.65625 -40.160156 16.25 -41.296875 C 18.851562 -42.441406 21.65625 -43.015625 24.65625 -43.015625 Z M 24.65625 -4.921875 C 26.414062 -4.921875 28.003906 -5.640625 29.421875 -7.078125 C 30.835938 -8.515625 31.96875 -10.453125 32.8125 -12.890625 C 33.65625 -15.335938 34.078125 -18.039062 34.078125 -21 C 34.078125 -23.957031 33.65625 -26.65625 32.8125 -29.09375 C 31.96875 -31.53125 30.835938 -33.46875 29.421875 -34.90625 C 28.003906 -36.351562 26.414062 -37.078125 24.65625 -37.078125 C 22.9375 -37.078125 21.363281 -36.351562 19.9375 -34.90625 C 18.519531 -33.46875 17.378906 -31.53125 16.515625 -29.09375 C 15.660156 -26.65625 15.234375 -23.957031 15.234375 -21 C 15.234375 -18.039062 15.660156 -15.335938 16.515625 -12.890625 C 17.378906 -10.453125 18.519531 -8.515625 19.9375 -7.078125 C 21.363281 -5.640625 22.9375 -4.921875 24.65625 -4.921875 Z M 24.65625 -4.921875 "/></g></g></g><g fill="#0252bb" fill-opacity="1"><g transform="translate(91.421614, 295.831782)"><g><path d="M 33.109375 -16.671875 L 33.109375 -41.984375 L 38.984375 -41.984375 L 38.984375 -16.671875 C 38.984375 -13.035156 38.285156 -9.894531 36.890625 -7.25 C 35.492188 -4.613281 33.492188 -2.578125 30.890625 -1.140625 C 28.296875 0.296875 25.195312 1.015625 21.59375 1.015625 C 18.03125 1.015625 14.9375 0.296875 12.3125 -1.140625 C 9.695312 -2.578125 7.691406 -4.613281 6.296875 -7.25 C 4.898438 -9.894531 4.203125 -13.035156 4.203125 -16.671875 L 4.203125 -41.984375 L 15.296875 -41.984375 L 15.296875 -16.671875 C 15.296875 -13.078125 16.09375 -10.21875 17.6875 -8.09375 C 19.289062 -5.976562 21.472656 -4.921875 24.234375 -4.921875 C 26.953125 -4.921875 29.109375 -5.976562 30.703125 -8.09375 C 32.304688 -10.21875 33.109375 -13.078125 33.109375 -16.671875 Z M 33.109375 -16.671875 "/></g></g></g><g fill="#0252bb" fill-opacity="1"><g transform="translate(134.009884, 295.831782)"><g><path d="M 37.125 -29.328125 C 37.125 -26.890625 36.492188 -24.671875 35.234375 -22.671875 C 33.972656 -20.671875 32.347656 -19.148438 30.359375 -18.109375 L 38.875 0 L 27.40625 0 L 19.5 -16.734375 L 15.234375 -16.734375 L 15.234375 0 L 4.203125 0 L 4.203125 -41.984375 L 24.65625 -41.984375 C 26.96875 -41.984375 29.0625 -41.410156 30.9375 -40.265625 C 32.820312 -39.128906 34.320312 -37.613281 35.4375 -35.71875 C 36.5625 -33.820312 37.125 -31.691406 37.125 -29.328125 Z M 20.75 -36.59375 L 15.234375 -36.59375 L 15.234375 -22.140625 L 20.75 -22.140625 C 21.914062 -22.140625 22.894531 -22.847656 23.6875 -24.265625 C 24.488281 -25.679688 24.890625 -27.367188 24.890625 -29.328125 C 24.890625 -31.328125 24.488281 -33.035156 23.6875 -34.453125 C 22.894531 -35.878906 21.914062 -36.59375 20.75 -36.59375 Z M 20.75 -36.59375 "/></g></g></g><g fill="#0252bb" fill-opacity="1"><g transform="translate(174.378762, 295.831782)"><g><path d="M 13.015625 -33.71875 C 13.015625 -32.59375 13.5625 -31.609375 14.65625 -30.765625 C 15.757812 -29.929688 17.179688 -29.125 18.921875 -28.34375 C 20.660156 -27.5625 22.519531 -26.726562 24.5 -25.84375 C 26.476562 -24.96875 28.335938 -23.945312 30.078125 -22.78125 C 31.816406 -21.625 33.242188 -20.238281 34.359375 -18.625 C 35.484375 -17.007812 36.046875 -15.0625 36.046875 -12.78125 C 36.046875 -10.21875 35.285156 -7.882812 33.765625 -5.78125 C 32.242188 -3.6875 30.164062 -2.03125 27.53125 -0.8125 C 24.894531 0.40625 21.875 1.015625 18.46875 1.015625 C 14.957031 1.015625 11.71875 0.285156 8.75 -1.171875 C 5.789062 -2.628906 3.375 -4.738281 1.5 -7.5 L 6 -10.5625 C 8.757812 -6.71875 12.914062 -4.796875 18.46875 -4.796875 C 20.707031 -4.796875 22.359375 -5.09375 23.421875 -5.6875 C 24.484375 -6.289062 25.015625 -7.15625 25.015625 -8.28125 C 25.015625 -9.5625 24.453125 -10.660156 23.328125 -11.578125 C 22.210938 -12.492188 20.785156 -13.363281 19.046875 -14.1875 C 17.304688 -15.007812 15.445312 -15.859375 13.46875 -16.734375 C 11.488281 -17.617188 9.628906 -18.628906 7.890625 -19.765625 C 6.148438 -20.898438 4.71875 -22.257812 3.59375 -23.84375 C 2.476562 -25.425781 1.921875 -27.316406 1.921875 -29.515625 C 1.921875 -32.066406 2.707031 -34.363281 4.28125 -36.40625 C 5.863281 -38.445312 8.003906 -40.054688 10.703125 -41.234375 C 13.398438 -42.421875 16.453125 -43.015625 19.859375 -43.015625 C 22.972656 -43.015625 25.859375 -42.515625 28.515625 -41.515625 C 31.179688 -40.515625 33.3125 -39.132812 34.90625 -37.375 L 30.765625 -32.875 C 29.128906 -34.507812 27.539062 -35.644531 26 -36.28125 C 24.457031 -36.925781 22.566406 -37.25 20.328125 -37.25 C 17.972656 -37.25 16.164062 -36.945312 14.90625 -36.34375 C 13.644531 -35.75 13.015625 -34.875 13.015625 -33.71875 Z M 13.015625 -33.71875 "/></g></g></g><g fill="#0252bb" fill-opacity="1"><g transform="translate(212.528251, 295.831782)"><g><path d="M 15.296875 -18.296875 L 15.296875 -5.40625 L 33.46875 -5.40625 L 33.46875 0 L 4.203125 0 L 4.203125 -41.984375 L 32.265625 -41.984375 L 32.265625 -36.59375 L 15.296875 -36.59375 L 15.296875 -23.6875 L 24.46875 -23.6875 L 24.46875 -18.296875 Z M 15.296875 -18.296875 "/></g></g></g><g fill="#0252bb" fill-opacity="1"><g transform="translate(248.098446, 295.831782)"><g><path d="M 15.234375 -23.640625 L 28.125 -23.640625 L 28.125 -41.984375 L 39.171875 -41.984375 L 39.171875 0 L 28.125 0 L 28.125 -18.109375 L 15.234375 -18.109375 L 15.234375 0 L 4.203125 0 L 4.203125 -41.984375 L 15.234375 -41.984375 Z M 15.234375 -23.640625 "/></g></g></g><g fill="#0252bb" fill-opacity="1"><g transform="translate(291.466494, 295.831782)"><g><path d="M 33.109375 -16.671875 L 33.109375 -41.984375 L 38.984375 -41.984375 L 38.984375 -16.671875 C 38.984375 -13.035156 38.285156 -9.894531 36.890625 -7.25 C 35.492188 -4.613281 33.492188 -2.578125 30.890625 -1.140625 C 28.296875 0.296875 25.195312 1.015625 21.59375 1.015625 C 18.03125 1.015625 14.9375 0.296875 12.3125 -1.140625 C 9.695312 -2.578125 7.691406 -4.613281 6.296875 -7.25 C 4.898438 -9.894531 4.203125 -13.035156 4.203125 -16.671875 L 4.203125 -41.984375 L 15.296875 -41.984375 L 15.296875 -16.671875 C 15.296875 -13.078125 16.09375 -10.21875 17.6875 -8.09375 C 19.289062 -5.976562 21.472656 -4.921875 24.234375 -4.921875 C 26.953125 -4.921875 29.109375 -5.976562 30.703125 -8.09375 C 32.304688 -10.21875 33.109375 -13.078125 33.109375 -16.671875 Z M 33.109375 -16.671875 "/></g></g></g><g fill="#0252bb" fill-opacity="1"><g transform="translate(334.054764, 295.831782)"><g><path d="M 32.578125 -23.15625 C 33.929688 -22.550781 35.128906 -21.671875 36.171875 -20.515625 C 37.210938 -19.359375 38.039062 -18.039062 38.65625 -16.5625 C 39.28125 -15.082031 39.59375 -13.539062 39.59375 -11.9375 C 39.59375 -9.8125 39.039062 -7.835938 37.9375 -6.015625 C 36.84375 -4.203125 35.375 -2.742188 33.53125 -1.640625 C 31.6875 -0.546875 29.644531 0 27.40625 0 L 4.203125 0 L 4.203125 -41.984375 L 25.1875 -41.984375 C 27.226562 -41.984375 29.085938 -41.484375 30.765625 -40.484375 C 32.453125 -39.484375 33.796875 -38.171875 34.796875 -36.546875 C 35.796875 -34.929688 36.296875 -33.164062 36.296875 -31.25 C 36.296875 -29.65625 35.941406 -28.132812 35.234375 -26.6875 C 34.535156 -25.25 33.648438 -24.070312 32.578125 -23.15625 Z M 15.296875 -5.40625 L 23.515625 -5.40625 C 24.597656 -5.476562 25.515625 -6.191406 26.265625 -7.546875 C 27.023438 -8.910156 27.40625 -10.535156 27.40625 -12.421875 C 27.40625 -14.296875 27.023438 -15.910156 26.265625 -17.265625 C 25.515625 -18.628906 24.597656 -19.332031 23.515625 -19.375 L 15.296875 -19.375 Z M 20.6875 -36.59375 L 15.296875 -36.59375 L 15.296875 -24.78125 L 20.6875 -24.78125 C 21.6875 -24.78125 22.492188 -25.335938 23.109375 -26.453125 C 23.734375 -27.566406 24.046875 -29.003906 24.046875 -30.765625 C 24.046875 -32.484375 23.742188 -33.882812 23.140625 -34.96875 C 22.546875 -36.050781 21.726562 -36.59375 20.6875 -36.59375 Z M 20.6875 -36.59375 "/></g></g></g></svg>